PathFileType	4	(X/Y/Z)	C:/Users/opensim2020/Desktop/walking_exp_matlab/subject03_walking10_straight_01.trc																																																																																																																																					
DataRate	CameraRate	NumFrames	NumMarkers	Units	OrigDataRate	OrigDataStartFrame	OrigNumFrames																																																																																																																																	
100	100	4	45	mm	100	957	477																																																																																																																																	
Frame#	Time	LFHD			RFHD			LBHD			RBHD			C7			T10			CLAV			STRN			RBAK			LSHO			LUPA			LELB			LFRM			LWRA			LWRB			LFIN			RSHO			RUPA			RELB			RFRM			RWRA			RWRB			RFIN			LASI			RASI			LPSI			RPSI			LTHI			LKNE			LTIB			LANK			LHEE			LTOE			RTHI			RKNE			RTIB			RANK			RHEE			RTOE			*39			*40			*41			*42			*43			*44		
		X1	Y1	Z1	X2	Y2	Z2	X3	Y3	Z3	X4	Y4	Z4	X5	Y5	Z5	X6	Y6	Z6	X7	Y7	Z7	X8	Y8	Z8	X9	Y9	Z9	X10	Y10	Z10	X11	Y11	Z11	X12	Y12	Z12	X13	Y13	Z13	X14	Y14	Z14	X15	Y15	Z15	X16	Y16	Z16	X17	Y17	Z17	X18	Y18	Z18	X19	Y19	Z19	X20	Y20	Z20	X21	Y21	Z21	X22	Y22	Z22	X23	Y23	Z23	X24	Y24	Z24	X25	Y25	Z25	X26	Y26	Z26	X27	Y27	Z27	X28	Y28	Z28	X29	Y29	Z29	X30	Y30	Z30	X31	Y31	Z31	X32	Y32	Z32	X33	Y33	Z33	X34	Y34	Z34	X35	Y35	Z35	X36	Y36	Z36	X37	Y37	Z37	X38	Y38	Z38	X39	Y39	Z39	X40	Y40	Z40	X41	Y41	Z41	X42	Y42	Z42	X43	Y43	Z43	X44	Y44	Z44	X45	Y45	Z45
																																																																																																																																								
299	2.98	300.25403	1613.25452	1364.02209	283.96268	1620.11902	1496.21875	170.20502	1576.0907	1354.078	159.04163	1582.36633	1484.98584	125.8642	1418.68738	1408.81519	81.98514	1105.99646	1411.09058	242.9041	1337.08801	1421.98413	281.80902	1171.37988	1419.61426	55.29688	1244.6322	1498.02917	214.49449	1375.69995	1263.31494	231.45631	1185.02014	1184.49988	261.55441	1067.21338	1168.22766	323.02725	953.27228	1173.27454	373.69623	847.74536	1208.26697	355.69995	845.37451	1155.78943	399.1973	774.58826	1167.41455	180.28397	1363.53003	1576.38794	168.64024	1140.79883	1647.65991	183.55644	1029.1991	1662.70544	203.95895	893.66632	1666.53162	242.02817	799.98059	1635.56628	204.50381	793.35999	1674.26392	231.34435	723.35846	1667.56616	246.14229	938.81775	1300.21606	237.10657	937.04089	1538.31604	82.94563	968.51666	1346.62012	78.31514	968.41443	1494.98523	162.56856	641.29205	1269.79858	143.58932	465.22278	1312.49097	72.81606	281.98871	1313.85938	37.87743	73.59157	1359.87817	-4.38627	39.96577	1396.90881	188.97214	34.05439	1387.3241	237.39105	645.89301	1589.96765	317.07071	483.47525	1558.30505	307.25296	295.8605	1565.48315	324.71436	79.08215	1526.7572	287.96667	43.47596	1470.38623	464.70993	49.24111	1519.34998	214.59219	1678.74646	1406.5929	NaN	NaN	NaN	NaN	NaN	NaN	NaN	NaN	NaN	NaN	NaN	NaN	NaN	NaN	NaN
300	2.99	306.85123	1612.50159	1365.17957	290.45654	1619.2229	1497.35828	176.81688	1575.39539	1355.07397	165.57593	1581.57361	1485.89514	132.34126	1417.99329	1409.57776	88.36311	1105.2699	1411.65552	249.40726	1336.27002	1422.73499	288.21298	1170.5481	1420.26318	61.80583	1243.80835	1498.44641	221.21317	1375.0481	1264.12366	238.55518	1184.50354	1185.35767	268.43726	1066.52087	1169.36646	330.71283	953.14777	1174.99487	382.06058	848.21625	1210.66003	364.14743	845.34882	1158.09973	408.33496	775.13324	1170.21655	186.57489	1362.58618	1577.14148	174.55803	1139.73169	1647.91357	189.13503	1028.08801	1662.71399	208.90556	892.4657	1666.41052	246.75676	798.59924	1635.39746	209.07338	792.078	1673.99194	235.63702	721.98682	1667.24353	252.34184	938.18945	1300.62524	243.70706	936.27435	1538.67822	89.10135	967.66339	1347.26111	84.77737	967.57971	1495.62549	167.54462	640.82782	1270.10339	147.50775	464.9566	1312.59204	75.23135	282.16977	1313.7251	38.24487	74.03671	1359.88782	-4.28505	40.67958	1396.96069	189.09087	33.98119	1387.29456	243.54492	645.02191	1590.39795	323.52258	482.71301	1557.9436	318.50513	295.33911	1565.34949	342.68286	78.85748	1526.63049	307.62112	43.03625	1470.04846	484.12878	51.27351	1519.49622	221.11497	1677.9032	1407.53235	NaN	NaN	NaN	NaN	NaN	NaN	NaN	NaN	NaN	NaN	NaN	NaN	NaN	NaN	NaN
301	3	313.62241	1611.88745	1366.3363	296.98041	1618.33765	1498.51331	183.5313	1574.72107	1356.12268	172.2086	1580.75378	1486.88623	139.01961	1417.18689	1410.37463	94.81594	1104.53247	1412.29004	255.98479	1335.41931	1423.6283	294.63107	1169.66077	1420.84521	68.36348	1242.9436	1498.94434	227.99492	1374.38782	1264.94543	245.53577	1183.85596	1186.33252	275.4754	1065.81128	1170.578	338.21768	952.79742	1176.80457	390.14066	848.47534	1213.17297	372.36874	845.15796	1160.65234	417.11353	775.47241	1173.1283	192.93724	1361.65088	1577.95251	180.60928	1138.65833	1648.25842	194.75163	1026.99072	1662.93164	213.90515	891.19446	1666.27844	251.66731	797.2486	1635.28552	213.78671	790.77277	1673.69812	240.03812	720.58069	1666.87769	258.71655	937.59711	1301.05872	250.38416	935.42407	1539.04626	95.25964	966.883	1347.97278	91.38653	966.61426	1496.27759	172.60382	640.43036	1270.48877	151.72655	464.59271	1312.64233	77.41247	282.35947	1313.9458	38.65437	74.50643	1359.8761	-4.29312	41.49522	1396.91577	189.12869	33.86776	1387.14514	249.71825	644.14459	1590.93079	329.77289	481.79471	1557.8291	329.03311	294.77103	1565.19006	360.01312	78.97385	1526.76428	326.1405	42.82281	1470.15173	502.69263	54.0383	1519.58484	227.8101	1677.2489	1408.90466	NaN	NaN	NaN	NaN	NaN	NaN	NaN	NaN	NaN	NaN	NaN	NaN	NaN	NaN	NaN
302	3.01	320.25977	1611.0459	1367.54407	303.4584	1617.42297	1499.62048	190.2749	1573.97656	1357.17627	178.83638	1579.88	1488.02087	145.72101	1416.42175	1411.27368	101.34618	1103.74707	1413.0686	262.60104	1334.52014	1424.48145	301.10712	1168.78259	1421.49048	74.97025	1242.0752	1499.53223	234.84747	1373.69543	1265.86731	252.46016	1183.09302	1187.39001	282.51596	1065.17126	1171.93384	345.61258	952.35889	1178.75146	397.92142	848.50214	1215.7207	380.3237	844.83252	1163.20667	425.53445	775.60345	1176.17639	199.42805	1360.66443	1578.8374	186.82303	1137.64954	1648.74683	200.74426	1025.7218	1662.90283	219.40622	889.89868	1666.26392	256.60446	795.82043	1635.07703	218.51262	789.53717	1673.59802	244.49727	719.09125	1666.51025	265.19031	937.04083	1301.58179	257.20853	934.5365	1539.48291	101.6289	965.98096	1348.76685	98.01769	965.66083	1497.03967	177.84206	640.05273	1270.92175	155.67473	464.13312	1312.72485	79.86176	282.52426	1313.94019	39.07931	74.96084	1359.85327	-4.1354	42.37523	1396.72778	189.3503	33.90104	1386.90063	256.35001	643.17249	1591.16528	335.98874	480.69385	1557.66919	338.90509	294.19348	1565.03223	376.52164	79.22034	1527.04688	343.72137	42.56363	1470.15723	520.14105	57.04817	1519.74048	234.51494	1676.15894	1409.98926	NaN	NaN	NaN	NaN	NaN	NaN	NaN	NaN	NaN	NaN	NaN	NaN	NaN	NaN	NaN
